<?xml version="1.0" encoding="utf-8"?>
<!-- Generator: Adobe Illustrator 27.0.0, SVG Export Plug-In . SVG Version: 6.00 Build 0)  -->
<svg version="1.1" id="Layer_1" xmlns="http://www.w3.org/2000/svg" xmlns:xlink="http://www.w3.org/1999/xlink" x="0px" y="0px"
	 viewBox="0 0 1182 942" style="enable-background:new 0 0 1182 942;" xml:space="preserve">
<style type="text/css">
	.st0{fill:#094C6D;}
	.st1{fill:#143D59;}
	.st2{fill:#055C80;}
	.st3{fill:#094C6D;fill-opacity:0.6;}
	.st4{fill:#003756;}
</style>
<g>
	<polygon class="st0" points="869,501 869,500 869,306 869,193.4 556.5,0 556,320 	"/>
	<polygon class="st0" points="556,942 1101.8,942 556,626.7 	"/>
	<polygon class="st1" points="869,500 869,501 982.5,567 1103,637 1181.8,682.9 1182,795 1182,795 1182,317.7 	"/>
	<polygon class="st2" points="869,193.4 869,306 869,500 1182,317.7 1182,306 1182,10 	"/>
	<polygon class="st3" points="556,567 556,320.5 554.7,319.8 243,501.4 243,808.5 556,626.7 	"/>
	<polygon class="st3" points="556,320 555.2,319.5 554.7,319.8 556,320.5 	"/>
	<polygon class="st4" points="243,809 243,808.5 12,942.7 556,942.7 556,942 556,626.7 	"/>
	<polygon class="st4" points="556,626.7 243,808.5 243,809 	"/>
	<polygon class="st2" points="1182,795 1181.8,682.9 1103,637 982.5,567 869,501 556,320 556,567 556,626.7 1101.8,942 
		1182.2,942.3 	"/>
	<polygon class="st4" points="556,319 556,319 556,319 556.5,0 0,0 555.2,319.5 	"/>
	<polygon class="st4" points="555.2,319.5 556,320 556,319 	"/>
	<polygon class="st4" points="556,319 556,319 556,320 556,319 	"/>
</g>
</svg>
