<?xml version="1.0" encoding="utf-8"?>
<!-- Generator: Adobe Illustrator 27.0.0, SVG Export Plug-In . SVG Version: 6.00 Build 0)  -->
<svg version="1.1" id="Layer_1" xmlns="http://www.w3.org/2000/svg" xmlns:xlink="http://www.w3.org/1999/xlink" x="0px" y="0px"
	 viewBox="0 0 80 80" style="enable-background:new 0 0 80 80;" xml:space="preserve">
<style type="text/css">
	.st0{fill:#FFFFFF;}
	.st1{fill:#003366;}
</style>
<g>
</g>
<circle class="st0" cx="40" cy="40" r="40"/>
<g>
	<g>
		<g>
			<path class="st1" d="M55.6,61.3h-5.2c-1.9,0-3.4-1.5-3.4-3.4v-5c0-0.1-0.1-0.3-0.2-0.4l-6.6-4.5c-0.1-0.1-0.3-0.1-0.4,0l-6.5,4.5
				c-0.2,0.2-0.3,0.3-0.3,0.4l0,5c0,1.9-1.5,3.4-3.4,3.4h-5.2c-1.9,0-3.4-1.5-3.4-3.4V32.5c0-1.1,0.5-2.1,1.4-2.8c0,0,0.1,0,0.1-0.1
				l15.6-10.4c0,0,0.1,0,0.1-0.1c1.2-0.7,2.6-0.7,3.7,0c0,0,0.1,0,0.1,0.1l15.5,10.4c0,0,0.1,0,0.1,0.1c0.9,0.7,1.4,1.7,1.4,2.8V58
				C59,59.8,57.5,61.3,55.6,61.3z M40,45c0.7,0,1.3,0.2,1.9,0.6l6.6,4.5c1,0.7,1.5,1.7,1.5,2.8v5c0,0.2,0.2,0.4,0.4,0.4h5.2
				c0.2,0,0.4-0.1,0.4-0.3V32.5c0-0.1,0-0.2-0.2-0.4L40.4,21.8c-0.2-0.1-0.4-0.1-0.6,0L24.2,32.1c-0.1,0.1-0.2,0.3-0.2,0.4v25.4
				c0,0.2,0.2,0.4,0.4,0.4h5.2c0.2,0,0.4-0.2,0.4-0.4v-5c0-1,0.5-2,1.4-2.8c0,0,0.1-0.1,0.1-0.1l6.6-4.5C38.7,45.2,39.3,45,40,45z"
				/>
			<path class="st1" d="M33.4,44c-1.1,0-2.1-0.5-2.8-1.4c-0.4-0.6-0.6-1.3-0.6-2v-3.9c0-1.1,0.6-2.2,1.5-2.8l6.6-4.4
				c1.1-0.7,2.6-0.7,3.7,0l6.6,4.4c0,0,0.1,0,0.1,0.1c0.9,0.7,1.4,1.7,1.4,2.7l0,3.8c0,1.9-1.4,3.5-3.3,3.5c-0.7,0-1.4-0.2-1.9-0.5
				l-4.5-3c-0.1-0.1-0.3-0.1-0.4,0l-4.5,3C34.7,43.8,34,44,33.4,44z M40,31.9c-0.1,0-0.2,0-0.2,0l-6.6,4.4c-0.2,0.1-0.2,0.2-0.2,0.3
				v3.9c0,0.1,0,0.2,0,0.3c0.1,0.1,0.4,0.2,0.6,0.1l4.5-2.9c1.1-0.7,2.6-0.7,3.7,0l4.5,2.9c0,0,0,0,0,0c0,0,0.1,0,0.3,0
				c0.2,0,0.4-0.1,0.4-0.4v-3.9c0-0.1-0.1-0.2-0.3-0.4l-6.5-4.4C40.2,31.9,40.1,31.9,40,31.9z"/>
		</g>
	</g>
</g>
</svg>
